grf.mot
version=1
nRows=12
nColumns=31
inDegrees=yes
endheader
time	ground_force_vx	ground_force_vy	ground_force_vz	ground_force_px	ground_force_py	ground_force_pz	1_ground_force_vx	1_ground_force_vy	1_ground_force_vz	1_ground_force_px	1_ground_force_py	1_ground_force_pz	ground_torque_x	ground_torque_y	ground_torque_z	1_ground_torque_x	1_ground_torque_y	1_ground_torque_z	apo_force_vx	apo_force_vy	apo_force_vz	apo_force_px	apo_force_py	apo_force_pz	1_apo_force_vx	1_apo_force_vy	1_apo_force_vz	1_apo_force_px	1_apo_force_py	1_apo_force_pz	
2.48054000000000	0.00000000000000	0.00000000000000	0.00000000000000	0.00000000000000	0.00000000000000	0.00000000000000	-11.44960000000000	610.08199999999999	48.31330000000000	-0.00350264000000	0.00000000000000	-0.13431400000000	0.00000000000000	0.00000000000000	0.00000000000000	0.00000000000000	4.85440000000000	0.00000000000000	18.04700000000000	8.47480000000000	0.00000000000000	0.00000000000000	-0.35000000000000	0.00000000000000	-19.07900000000000	-6.10100000000000	0.00000000000000	0.00000000000000	-0.35000000000000	0.00000000000000	
2.48554000000000	0.00000000000000	0.00000000000000	0.00000000000000	0.00000000000000	0.00000000000000	0.00000000000000	-9.46378000000000	604.28999999999996	47.02830000000000	-0.00858669000000	0.00000000000000	-0.13392500000000	0.00000000000000	0.00000000000000	0.00000000000000	0.00000000000000	4.76749000000000	0.00000000000000	16.08500000000000	7.78240000000000	0.00000000000000	0.00000000000000	-0.35000000000000	0.00000000000000	-17.21100000000000	-5.27990000000000	0.00000000000000	0.00000000000000	-0.35000000000000	0.00000000000000	
2.49054000000000	0.00000000000000	0.00000000000000	0.00000000000000	0.00000000000000	0.00000000000000	0.00000000000000	-7.54239000000000	599.61599999999999	45.76900000000000	-0.01381730000000	0.00000000000000	-0.13356100000000	0.00000000000000	0.00000000000000	0.00000000000000	0.00000000000000	4.68029000000000	0.00000000000000	14.22800000000000	7.08050000000000	0.00000000000000	0.00000000000000	-0.35000000000000	0.00000000000000	-15.41400000000000	-4.52880000000000	0.00000000000000	0.00000000000000	-0.35000000000000	0.00000000000000	
2.49554000000000	0.00000000000000	0.00000000000000	0.00000000000000	0.00000000000000	0.00000000000000	0.00000000000000	-5.66093000000000	595.99699999999996	44.53630000000000	-0.01920890000000	0.00000000000000	-0.13323800000000	0.00000000000000	0.00000000000000	0.00000000000000	0.00000000000000	4.59133000000000	0.00000000000000	12.50700000000000	6.39160000000000	0.00000000000000	0.00000000000000	-0.35000000000000	0.00000000000000	-13.72100000000000	-3.85440000000000	0.00000000000000	0.00000000000000	-0.35000000000000	0.00000000000000	
2.50054000000000	0.00000000000000	0.00000000000000	0.00000000000000	0.00000000000000	0.00000000000000	0.00000000000000	-3.79973000000000	593.35900000000004	43.33200000000000	-0.02477120000000	0.00000000000000	-0.13297100000000	0.00000000000000	0.00000000000000	0.00000000000000	0.00000000000000	4.49933000000000	0.00000000000000	10.94300000000000	5.73370000000000	0.00000000000000	0.00000000000000	-0.35000000000000	0.00000000000000	-12.15500000000000	-3.25860000000000	0.00000000000000	0.00000000000000	-0.35000000000000	0.00000000000000	
2.50554000000000	0.00000000000000	0.00000000000000	0.00000000000000	0.00000000000000	0.00000000000000	0.00000000000000	-1.94399000000000	591.62099999999998	42.15910000000000	-0.03050780000000	0.00000000000000	-0.13277000000000	0.00000000000000	0.00000000000000	0.00000000000000	0.00000000000000	4.40320000000000	0.00000000000000	9.54500000000000	5.12020000000000	0.00000000000000	0.00000000000000	-0.35000000000000	0.00000000000000	-10.73000000000000	-2.73960000000000	0.00000000000000	0.00000000000000	-0.35000000000000	0.00000000000000	
2.51054000000000	0.00000000000000	0.00000000000000	0.00000000000000	0.00000000000000	0.00000000000000	0.00000000000000	-0.08350570000000	590.69600000000003	41.02230000000000	-0.03641660000000	0.00000000000000	-0.13264500000000	0.00000000000000	0.00000000000000	0.00000000000000	0.00000000000000	4.30205000000000	0.00000000000000	8.31750000000000	4.56100000000000	0.00000000000000	0.00000000000000	-0.35000000000000	0.00000000000000	-9.45270000000000	-2.29320000000000	0.00000000000000	0.00000000000000	-0.35000000000000	0.00000000000000	
2.51554000000000	0.00000000000000	0.00000000000000	0.00000000000000	0.00000000000000	0.00000000000000	0.00000000000000	1.78769000000000	590.50000000000000	39.92740000000000	-0.04248920000000	0.00000000000000	-0.13260300000000	0.00000000000000	0.00000000000000	0.00000000000000	0.00000000000000	4.19525000000000	0.00000000000000	7.27230000000000	4.07070000000000	0.00000000000000	0.00000000000000	-0.35000000000000	0.00000000000000	-8.33790000000000	-1.91740000000000	0.00000000000000	0.00000000000000	-0.35000000000000	0.00000000000000	
2.52054000000000	0.00000000000000	0.00000000000000	0.00000000000000	0.00000000000000	0.00000000000000	0.00000000000000	3.67194000000000	590.95000000000005	38.88230000000000	-0.04871090000000	0.00000000000000	-0.13264400000000	0.00000000000000	0.00000000000000	0.00000000000000	0.00000000000000	4.08239000000000	0.00000000000000	6.38180000000000	3.64140000000000	0.00000000000000	0.00000000000000	-0.35000000000000	0.00000000000000	-7.36110000000000	-1.60020000000000	0.00000000000000	0.00000000000000	-0.35000000000000	0.00000000000000	
2.52554000000000	0.00000000000000	0.00000000000000	0.00000000000000	0.00000000000000	0.00000000000000	0.00000000000000	5.56874000000000	591.97199999999998	37.89620000000000	-0.05506100000000	0.00000000000000	-0.13277000000000	0.00000000000000	0.00000000000000	0.00000000000000	0.00000000000000	3.96330000000000	0.00000000000000	5.61690000000000	3.26240000000000	0.00000000000000	0.00000000000000	-0.35000000000000	0.00000000000000	-6.49300000000000	-1.33030000000000	0.00000000000000	0.00000000000000	-0.35000000000000	0.00000000000000	
2.53054000000000	0.00000000000000	0.00000000000000	0.00000000000000	0.00000000000000	0.00000000000000	0.00000000000000	7.47556000000000	593.49900000000002	36.98010000000000	-0.06151300000000	0.00000000000000	-0.13297700000000	0.00000000000000	0.00000000000000	0.00000000000000	0.00000000000000	3.83803000000000	0.00000000000000	4.97000000000000	2.93460000000000	0.00000000000000	0.00000000000000	-0.35000000000000	0.00000000000000	-5.73070000000000	-1.10280000000000	0.00000000000000	0.00000000000000	-0.35000000000000	0.00000000000000	
2.53554000000000	0.00000000000000	0.00000000000000	0.00000000000000	0.00000000000000	0.00000000000000	0.00000000000000	9.38886000000000	595.48099999999999	36.14630000000000	-0.06803540000000	0.00000000000000	-0.13325900000000	0.00000000000000	0.00000000000000	0.00000000000000	0.00000000000000	3.70686000000000	0.00000000000000	4.41690000000000	2.64790000000000	0.00000000000000	0.00000000000000	-0.35000000000000	0.00000000000000	-5.05080000000000	-0.90945000000000	0.00000000000000	0.00000000000000	-0.35000000000000	0.00000000000000	
